# xmcd
#
# Track frame offsets:
#	150
#	27835
#	67357
#	97875
#	122437
#	141392
#	167580
#	184485
#	218200
#	238497
#	259530
#	291417
#
# Disc length: 4249 seconds
#
# Revision: 0
# Processed by: cddbd v1.4PL0 Copyright (c) Steve Scherf et al.
# Submitted via: dBpowerAMP V4.0
#
DISCID=bd10970c
DTITLE=Mr. B - My Sunday Best
DYEAR=1992
DGENRE=Blues
TTITLE0=My Sunday Best
TTITLE1=Deep Excavation
TTITLE2=Little Brother
TTITLE3=Swanee River Boogie
TTITLE4=La Piragua
TTITLE5=Blues For The Carpenter's Saw
TTITLE6=Thunder and Lightning Boogie
TTITLE7=When I Lost My Baby
TTITLE8=New 44 Blues
TTITLE9=Roll 'Em Pete
TTITLE10=Deep South Blues
TTITLE11=My Sunday Best
EXTD=
EXTT0=
EXTT1=
EXTT2=
EXTT3=
EXTT4=
EXTT5=
EXTT6=
EXTT7=
EXTT8=
EXTT9=
EXTT10=
EXTT11=
PLAYORDER=
